<svg width="7" height="12" viewBox="0 0 7 12" fill="none" xmlns="http://www.w3.org/2000/svg">
<path d="M6.876 7.78C6.876 8.204 6.76 8.588 6.528 8.932C6.304 9.276 5.98 9.552 5.556 9.76C5.14 9.96 4.656 10.076 4.104 10.108V10.96C4.104 11.064 4.068 11.148 3.996 11.212C3.932 11.284 3.844 11.32 3.732 11.32C3.628 11.32 3.54 11.288 3.468 11.224C3.404 11.16 3.372 11.072 3.372 10.96V10.108C2.508 10.052 1.7 9.864 0.948 9.544C0.852 9.504 0.772 9.44 0.708 9.352C0.644 9.256 0.612 9.156 0.612 9.052C0.612 8.916 0.656 8.8 0.744 8.704C0.84 8.6 0.96 8.548 1.104 8.548C1.184 8.548 1.26 8.564 1.332 8.596C1.98 8.884 2.66 9.044 3.372 9.076V6.316C2.828 6.172 2.368 6.016 1.992 5.848C1.624 5.68 1.316 5.444 1.068 5.14C0.82 4.828 0.696 4.436 0.696 3.964C0.696 3.548 0.796 3.164 0.996 2.812C1.204 2.46 1.508 2.168 1.908 1.936C2.316 1.704 2.804 1.564 3.372 1.516V0.676C3.372 0.572 3.404 0.484 3.468 0.412C3.54 0.34 3.628 0.304 3.732 0.304C3.836 0.304 3.924 0.34 3.996 0.412C4.068 0.484 4.104 0.572 4.104 0.676V1.504C4.888 1.536 5.584 1.668 6.192 1.9C6.416 1.98 6.528 2.14 6.528 2.38C6.528 2.508 6.484 2.624 6.396 2.728C6.308 2.832 6.192 2.884 6.048 2.884C6 2.884 5.936 2.868 5.856 2.836C5.312 2.644 4.728 2.536 4.104 2.512V5.368C4.68 5.504 5.156 5.652 5.532 5.812C5.916 5.972 6.236 6.212 6.492 6.532C6.748 6.844 6.876 7.26 6.876 7.78ZM1.788 3.88C1.788 4.232 1.92 4.504 2.184 4.696C2.456 4.888 2.852 5.052 3.372 5.188V2.548C2.892 2.612 2.508 2.76 2.22 2.992C1.932 3.216 1.788 3.512 1.788 3.88ZM4.104 9.076C5.232 8.996 5.796 8.54 5.796 7.708C5.796 7.396 5.652 7.156 5.364 6.988C5.084 6.812 4.664 6.648 4.104 6.496V9.076Z" fill="white"/>
</svg>
