<svg width="24" height="22" viewBox="0 0 24 22" fill="none" xmlns="http://www.w3.org/2000/svg">
<path d="M21.25 10.9999C21.2488 12.113 21.011 13.2152 20.55 14.2449C19.6058 16.316 17.8094 17.9627 15.55 18.8283C14.383 19.2683 13.1305 19.4863 11.8687 19.469C10.6069 19.4516 9.36217 19.1993 8.21004 18.7274L4.34004 19.2499C4.15004 19.2912 3.95004 19.2912 3.76004 19.2499C3.57872 19.1896 3.41463 19.0924 3.28004 18.9658C3.1405 18.8333 3.04123 18.6697 2.9921 18.4912C2.94298 18.3127 2.94571 18.1255 3.00004 17.9483L3.53004 14.3549C3.01242 13.3002 2.74649 12.1564 2.75004 10.9999C2.75129 9.88685 2.98905 8.78466 3.45004 7.75492C4.39429 5.68383 6.19067 4.03715 8.45004 3.17159C9.57551 2.7438 10.7816 2.52267 12 2.52075" stroke="#454545" stroke-width="2" stroke-linecap="round" stroke-linejoin="round"/>
<path d="M11.9998 11.5592C12.1617 11.5592 12.317 11.5002 12.4315 11.3953C12.546 11.2903 12.6103 11.148 12.6103 10.9996C12.6103 10.8511 12.546 10.7088 12.4315 10.6039C12.317 10.4989 12.1617 10.4399 11.9998 10.4399C11.8379 10.4399 11.6826 10.4989 11.5681 10.6039C11.4536 10.7088 11.3893 10.8511 11.3893 10.9996C11.3893 11.148 11.4536 11.2903 11.5681 11.3953C11.6826 11.5002 11.8379 11.5592 11.9998 11.5592ZM16.2788 11.5592C16.4407 11.5592 16.596 11.5002 16.7105 11.3953C16.825 11.2903 16.8893 11.148 16.8893 10.9996C16.8893 10.8511 16.825 10.7088 16.7105 10.6039C16.596 10.4989 16.4407 10.4399 16.2788 10.4399C16.1169 10.4399 15.9616 10.4989 15.8471 10.6039C15.7326 10.7088 15.6683 10.8511 15.6683 10.9996C15.6683 11.148 15.7326 11.2903 15.8471 11.3953C15.9616 11.5002 16.1169 11.5592 16.2788 11.5592ZM7.72083 11.5592C7.801 11.5593 7.8804 11.5448 7.95449 11.5168C8.02859 11.4887 8.09593 11.4475 8.15266 11.3956C8.2094 11.3437 8.25442 11.282 8.28517 11.2141C8.31591 11.1463 8.33176 11.0735 8.33183 11C8.33189 10.9265 8.31617 10.8538 8.28555 10.7858C8.25493 10.7179 8.21001 10.6562 8.15337 10.6042C8.09673 10.5522 8.02946 10.5109 7.95542 10.4827C7.88137 10.4545 7.802 10.44 7.72183 10.4399C7.55991 10.4399 7.40463 10.4989 7.29014 10.6039C7.17565 10.7088 7.11133 10.8511 7.11133 10.9996C7.11133 11.148 7.17565 11.2903 7.29014 11.3953C7.40463 11.5002 7.55891 11.5592 7.72083 11.5592Z" stroke="#454545" stroke-width="2" stroke-linecap="round" stroke-linejoin="round"/>
<path d="M16.6143 3.30454C16.7502 3.03292 16.981 2.81062 17.2703 2.67281C17.5595 2.535 17.8907 2.48957 18.2113 2.5437C18.4308 2.57459 18.6395 2.6522 18.8204 2.77032C19.0014 2.88844 19.1496 3.04377 19.2533 3.22387C19.3278 3.36806 19.3682 3.52508 19.3718 3.6846C19.3754 3.84412 19.3422 4.00254 19.2743 4.14946C19.2064 4.29637 19.1054 4.42846 18.9778 4.53703C18.8503 4.64561 18.6991 4.72823 18.5343 4.77945C18.3662 4.83786 18.2207 4.94059 18.1162 5.07469C18.0118 5.2088 17.953 5.36825 17.9473 5.53295V5.84462" stroke="#454545" stroke-width="2" stroke-miterlimit="10" stroke-linecap="round"/>
<path d="M17.9209 7.5625H17.9249" stroke="#454545" stroke-width="2" stroke-linecap="round" stroke-linejoin="round"/>
</svg>
