<svg width="290" height="143" viewBox="0 0 290 143" fill="none" xmlns="http://www.w3.org/2000/svg">
<path d="M92.6427 1H22C10.402 1 0.999992 10.402 0.99999 22L0.999984 62C0.999983 73.598 10.402 83 22 83H133.221C152.003 83 161.339 60.2296 147.963 47.0446L107.385 7.04453C103.456 3.17131 98.16 1 92.6427 1Z" fill="#1B1B1B" stroke="white" stroke-width="2"/>
<rect x="1" y="24" width="288" height="118" rx="19" fill="#1B1B1B" stroke="white" stroke-width="2"/>
<path d="M18.584 56V46.48H19.648V56H18.584ZM15.392 46.746V45.78H22.84V46.746H15.392ZM27.0451 56.238C26.4105 56.238 25.8505 56.1307 25.3651 55.916C24.8891 55.692 24.4831 55.398 24.1471 55.034C23.8205 54.6607 23.5685 54.2453 23.3911 53.788C23.2231 53.3307 23.1391 52.864 23.1391 52.388V52.192C23.1391 51.716 23.2278 51.2493 23.4051 50.792C23.5825 50.3253 23.8391 49.91 24.1751 49.546C24.5111 49.182 24.9171 48.8927 25.3931 48.678C25.8785 48.454 26.4291 48.342 27.0451 48.342C27.6705 48.342 28.2211 48.454 28.6971 48.678C29.1825 48.8927 29.5931 49.182 29.9291 49.546C30.2651 49.91 30.5171 50.3253 30.6851 50.792C30.8625 51.2493 30.9511 51.716 30.9511 52.192V52.388C30.9511 52.864 30.8671 53.3307 30.6991 53.788C30.5311 54.2453 30.2791 54.6607 29.9431 55.034C29.6165 55.398 29.2105 55.692 28.7251 55.916C28.2398 56.1307 27.6798 56.238 27.0451 56.238ZM27.0451 55.3C27.6611 55.3 28.1791 55.1647 28.5991 54.894C29.0285 54.614 29.3551 54.25 29.5791 53.802C29.8031 53.3447 29.9151 52.8407 29.9151 52.29C29.9151 51.73 29.7985 51.226 29.5651 50.778C29.3411 50.3207 29.0145 49.9613 28.5851 49.7C28.1558 49.4293 27.6425 49.294 27.0451 49.294C26.4571 49.294 25.9485 49.4293 25.5191 49.7C25.0898 49.9613 24.7585 50.3207 24.5251 50.778C24.3011 51.226 24.1891 51.73 24.1891 52.29C24.1891 52.8407 24.3011 53.3447 24.5251 53.802C24.7491 54.25 25.0711 54.614 25.4911 54.894C25.9205 55.1647 26.4385 55.3 27.0451 55.3ZM35.7804 56.084C35.267 56.084 34.8237 56.0093 34.4504 55.86C34.077 55.7107 33.7877 55.4587 33.5824 55.104C33.377 54.74 33.2744 54.2547 33.2744 53.648V46.256H34.2824V53.802C34.2824 54.2313 34.399 54.5627 34.6324 54.796C34.8657 55.02 35.197 55.132 35.6264 55.132H36.9564V56.084H35.7804ZM31.9444 49.392V48.594H36.9564V49.392H31.9444ZM43.4656 56V53.774H43.2976V51.142C43.2976 50.5913 43.1529 50.1713 42.8636 49.882C42.5743 49.5833 42.1263 49.434 41.5196 49.434C41.2396 49.434 40.9549 49.4387 40.6656 49.448C40.3856 49.4573 40.1149 49.4713 39.8536 49.49C39.6016 49.4993 39.3776 49.5133 39.1816 49.532V48.608C39.3869 48.5893 39.5969 48.5707 39.8116 48.552C40.0263 48.5333 40.2456 48.524 40.4696 48.524C40.7029 48.5147 40.9269 48.51 41.1416 48.51C41.8976 48.51 42.5043 48.6033 42.9616 48.79C43.4283 48.9767 43.7689 49.2707 43.9836 49.672C44.1983 50.064 44.3056 50.5867 44.3056 51.24V56H43.4656ZM40.9596 56.196C40.4369 56.196 39.9749 56.1027 39.5736 55.916C39.1723 55.7293 38.8596 55.4587 38.6356 55.104C38.4209 54.7493 38.3136 54.32 38.3136 53.816C38.3136 53.3213 38.4256 52.9013 38.6496 52.556C38.8829 52.2107 39.2143 51.9493 39.6436 51.772C40.0823 51.5853 40.6096 51.492 41.2256 51.492H43.3956V52.29H41.1556C40.5676 52.29 40.1149 52.4347 39.7976 52.724C39.4896 53.004 39.3356 53.3727 39.3356 53.83C39.3356 54.2967 39.4989 54.67 39.8256 54.95C40.1523 55.2207 40.5956 55.356 41.1556 55.356C41.5009 55.356 41.8323 55.2953 42.1496 55.174C42.4669 55.0433 42.7329 54.8287 42.9476 54.53C43.1623 54.222 43.2789 53.802 43.2976 53.27L43.6056 53.704C43.5683 54.2547 43.4376 54.7167 43.2136 55.09C42.9896 55.454 42.6863 55.7293 42.3036 55.916C41.9209 56.1027 41.4729 56.196 40.9596 56.196ZM46.9983 56V45.78H48.0483V56H46.9983ZM45.9203 46.634V45.78H48.0483V46.634H45.9203ZM55.0597 52.262V51.324H57.4397C57.9904 51.324 58.4384 51.2213 58.7837 51.016C59.129 50.8013 59.3857 50.5213 59.5537 50.176C59.7217 49.8213 59.8057 49.4293 59.8057 49C59.8057 48.5613 59.7217 48.1693 59.5537 47.824C59.3857 47.4693 59.129 47.1893 58.7837 46.984C58.4384 46.7787 57.9904 46.676 57.4397 46.676H55.0597V45.738H57.2577C58.079 45.738 58.7557 45.8733 59.2877 46.144C59.829 46.4147 60.2304 46.788 60.4917 47.264C60.7624 47.74 60.8977 48.286 60.8977 48.902V49.098C60.8977 49.7047 60.7624 50.2507 60.4917 50.736C60.2304 51.212 59.829 51.5853 59.2877 51.856C58.7557 52.1267 58.079 52.262 57.2577 52.262H55.0597ZM54.2757 56V45.738H55.3397V56H54.2757ZM62.8834 56V48.594H63.7234V51.688H63.6394C63.6394 50.6053 63.8774 49.8073 64.3534 49.294C64.8294 48.7713 65.5761 48.51 66.5934 48.51H66.8314V49.462H66.3974C65.5947 49.462 64.9834 49.672 64.5634 50.092C64.1434 50.5027 63.9334 51.1093 63.9334 51.912V56H62.8834ZM71.7522 56.238C71.1175 56.238 70.5575 56.1307 70.0722 55.916C69.5962 55.692 69.1902 55.398 68.8542 55.034C68.5275 54.6607 68.2755 54.2453 68.0982 53.788C67.9302 53.3307 67.8462 52.864 67.8462 52.388V52.192C67.8462 51.716 67.9348 51.2493 68.1122 50.792C68.2895 50.3253 68.5462 49.91 68.8822 49.546C69.2182 49.182 69.6242 48.8927 70.1002 48.678C70.5855 48.454 71.1362 48.342 71.7522 48.342C72.3775 48.342 72.9282 48.454 73.4042 48.678C73.8895 48.8927 74.3002 49.182 74.6362 49.546C74.9722 49.91 75.2242 50.3253 75.3922 50.792C75.5695 51.2493 75.6582 51.716 75.6582 52.192V52.388C75.6582 52.864 75.5742 53.3307 75.4062 53.788C75.2382 54.2453 74.9862 54.6607 74.6502 55.034C74.3235 55.398 73.9175 55.692 73.4322 55.916C72.9468 56.1307 72.3868 56.238 71.7522 56.238ZM71.7522 55.3C72.3682 55.3 72.8862 55.1647 73.3062 54.894C73.7355 54.614 74.0622 54.25 74.2862 53.802C74.5102 53.3447 74.6222 52.8407 74.6222 52.29C74.6222 51.73 74.5055 51.226 74.2722 50.778C74.0482 50.3207 73.7215 49.9613 73.2922 49.7C72.8628 49.4293 72.3495 49.294 71.7522 49.294C71.1642 49.294 70.6555 49.4293 70.2262 49.7C69.7968 49.9613 69.4655 50.3207 69.2322 50.778C69.0082 51.226 68.8962 51.73 68.8962 52.29C68.8962 52.8407 69.0082 53.3447 69.2322 53.802C69.4562 54.25 69.7782 54.614 70.1982 54.894C70.6275 55.1647 71.1455 55.3 71.7522 55.3ZM78.0094 56V47.936C78.0094 47.1613 78.2101 46.5873 78.6114 46.214C79.0127 45.8407 79.6147 45.654 80.4174 45.654H81.2714V46.55H80.2214C79.8294 46.55 79.5307 46.6527 79.3254 46.858C79.1201 47.0633 79.0174 47.3527 79.0174 47.726V56H78.0094ZM76.9314 49.406V48.594H81.2294V49.406H76.9314ZM83.1614 56V48.594H84.2114V56H83.1614ZM82.0134 49.434V48.594H84.2114V49.434H82.0134ZM83.3854 47.222C83.1334 47.222 82.9467 47.1567 82.8254 47.026C82.7041 46.886 82.6434 46.7133 82.6434 46.508C82.6434 46.3027 82.7041 46.1347 82.8254 46.004C82.9467 45.864 83.1334 45.794 83.3854 45.794C83.6374 45.794 83.8241 45.864 83.9454 46.004C84.0667 46.1347 84.1274 46.3027 84.1274 46.508C84.1274 46.7133 84.0667 46.886 83.9454 47.026C83.8241 47.1567 83.6374 47.222 83.3854 47.222ZM89.6476 56.084C89.1342 56.084 88.6909 56.0093 88.3176 55.86C87.9442 55.7107 87.6549 55.4587 87.4496 55.104C87.2442 54.74 87.1416 54.2547 87.1416 53.648V46.256H88.1496V53.802C88.1496 54.2313 88.2662 54.5627 88.4996 54.796C88.7329 55.02 89.0642 55.132 89.4936 55.132H90.8236V56.084H89.6476ZM85.8116 49.392V48.594H90.8236V49.392H85.8116Z" fill="#A1A1A1"/>
<path d="M24.2659 16C24.1992 16 24.1426 15.98 24.0959 15.94C24.0559 15.8933 24.0359 15.8367 24.0359 15.77V13.41L21.6259 9.33C21.6192 9.31 21.6126 9.29 21.6059 9.27C21.5992 9.25 21.5959 9.22667 21.5959 9.2C21.5959 9.14667 21.6159 9.1 21.6559 9.06C21.6959 9.02 21.7426 9 21.7959 9H22.3159C22.3759 9 22.4292 9.01667 22.4759 9.05C22.5226 9.07667 22.5559 9.11667 22.5759 9.17L24.5259 12.41L26.4759 9.17C26.5092 9.11667 26.5459 9.07667 26.5859 9.05C26.6326 9.01667 26.6859 9 26.7459 9H27.2559C27.3159 9 27.3659 9.02 27.4059 9.06C27.4459 9.1 27.4659 9.14667 27.4659 9.2C27.4659 9.22667 27.4626 9.25 27.4559 9.27C27.4492 9.29 27.4392 9.31 27.4259 9.33L25.0259 13.41V15.77C25.0259 15.8367 25.0026 15.8933 24.9559 15.94C24.9159 15.98 24.8592 16 24.7859 16H24.2659ZM29.8007 16.1C29.294 16.1 28.8707 16.0033 28.5307 15.81C28.1907 15.6167 27.9307 15.35 27.7507 15.01C27.5707 14.6633 27.4707 14.27 27.4507 13.83C27.444 13.7167 27.4407 13.5733 27.4407 13.4C27.4407 13.22 27.444 13.0767 27.4507 12.97C27.4707 12.5233 27.5707 12.13 27.7507 11.79C27.9373 11.45 28.2007 11.1833 28.5407 10.99C28.8807 10.7967 29.3007 10.7 29.8007 10.7C30.3007 10.7 30.7207 10.7967 31.0607 10.99C31.4007 11.1833 31.6607 11.45 31.8407 11.79C32.0273 12.13 32.1307 12.5233 32.1507 12.97C32.1573 13.0767 32.1607 13.22 32.1607 13.4C32.1607 13.5733 32.1573 13.7167 32.1507 13.83C32.1307 14.27 32.0307 14.6633 31.8507 15.01C31.6707 15.35 31.4107 15.6167 31.0707 15.81C30.7307 16.0033 30.3073 16.1 29.8007 16.1ZM29.8007 15.33C30.214 15.33 30.544 15.2 30.7907 14.94C31.0373 14.6733 31.1707 14.2867 31.1907 13.78C31.1973 13.68 31.2007 13.5533 31.2007 13.4C31.2007 13.2467 31.1973 13.12 31.1907 13.02C31.1707 12.5133 31.0373 12.13 30.7907 11.87C30.544 11.6033 30.214 11.47 29.8007 11.47C29.3873 11.47 29.054 11.6033 28.8007 11.87C28.554 12.13 28.424 12.5133 28.4107 13.02C28.404 13.12 28.4007 13.2467 28.4007 13.4C28.4007 13.5533 28.404 13.68 28.4107 13.78C28.424 14.2867 28.554 14.6733 28.8007 14.94C29.054 15.2 29.3873 15.33 29.8007 15.33ZM35.3529 16.1C34.9262 16.1 34.5629 16.0067 34.2629 15.82C33.9695 15.6267 33.7462 15.36 33.5929 15.02C33.4395 14.68 33.3629 14.29 33.3629 13.85V11.03C33.3629 10.9633 33.3829 10.91 33.4229 10.87C33.4695 10.8233 33.5262 10.8 33.5929 10.8H34.0929C34.1595 10.8 34.2129 10.8233 34.2529 10.87C34.2995 10.91 34.3229 10.9633 34.3229 11.03V13.8C34.3229 14.7933 34.7562 15.29 35.6229 15.29C36.0362 15.29 36.3662 15.16 36.6129 14.9C36.8662 14.6333 36.9929 14.2667 36.9929 13.8V11.03C36.9929 10.9633 37.0129 10.91 37.0529 10.87C37.0995 10.8233 37.1562 10.8 37.2229 10.8H37.7129C37.7862 10.8 37.8429 10.8233 37.8829 10.87C37.9229 10.91 37.9429 10.9633 37.9429 11.03V15.77C37.9429 15.8367 37.9229 15.8933 37.8829 15.94C37.8429 15.98 37.7862 16 37.7129 16H37.2529C37.1862 16 37.1295 15.98 37.0829 15.94C37.0429 15.8933 37.0229 15.8367 37.0229 15.77V15.33C36.8429 15.5633 36.6229 15.75 36.3629 15.89C36.1095 16.03 35.7729 16.1 35.3529 16.1ZM39.6585 16C39.5918 16 39.5351 15.98 39.4885 15.94C39.4485 15.8933 39.4285 15.8367 39.4285 15.77V11.04C39.4285 10.9733 39.4485 10.9167 39.4885 10.87C39.5351 10.8233 39.5918 10.8 39.6585 10.8H40.1185C40.1851 10.8 40.2418 10.8233 40.2885 10.87C40.3351 10.9167 40.3585 10.9733 40.3585 11.04V11.48C40.4918 11.2533 40.6751 11.0833 40.9085 10.97C41.1418 10.8567 41.4218 10.8 41.7485 10.8H42.1485C42.2151 10.8 42.2685 10.8233 42.3085 10.87C42.3485 10.91 42.3685 10.9633 42.3685 11.03V11.44C42.3685 11.5067 42.3485 11.56 42.3085 11.6C42.2685 11.64 42.2151 11.66 42.1485 11.66H41.5485C41.1885 11.66 40.9051 11.7667 40.6985 11.98C40.4918 12.1867 40.3885 12.47 40.3885 12.83V15.77C40.3885 15.8367 40.3651 15.8933 40.3185 15.94C40.2718 15.98 40.2151 16 40.1485 16H39.6585ZM45.8041 16C45.7308 16 45.6741 15.98 45.6341 15.94C45.5941 15.8933 45.5741 15.8367 45.5741 15.77V9.24C45.5741 9.16667 45.5941 9.11 45.6341 9.07C45.6741 9.02333 45.7308 9 45.8041 9H48.3441C48.8374 9 49.2641 9.08 49.6241 9.24C49.9908 9.4 50.2741 9.64 50.4741 9.96C50.6741 10.2733 50.7741 10.6667 50.7741 11.14C50.7741 11.6133 50.6741 12.0067 50.4741 12.32C50.2741 12.6333 49.9908 12.87 49.6241 13.03C49.2641 13.19 48.8374 13.27 48.3441 13.27H46.5741V15.77C46.5741 15.8367 46.5508 15.8933 46.5041 15.94C46.4641 15.98 46.4074 16 46.3341 16H45.8041ZM46.5641 12.43H48.2941C48.7874 12.43 49.1574 12.32 49.4041 12.1C49.6508 11.88 49.7741 11.56 49.7741 11.14C49.7741 10.7267 49.6541 10.4067 49.4141 10.18C49.1741 9.95333 48.8008 9.84 48.2941 9.84H46.5641V12.43ZM53.9218 16.1C53.4151 16.1 52.9918 16.0033 52.6518 15.81C52.3118 15.6167 52.0518 15.35 51.8718 15.01C51.6918 14.6633 51.5918 14.27 51.5718 13.83C51.5651 13.7167 51.5618 13.5733 51.5618 13.4C51.5618 13.22 51.5651 13.0767 51.5718 12.97C51.5918 12.5233 51.6918 12.13 51.8718 11.79C52.0584 11.45 52.3218 11.1833 52.6618 10.99C53.0018 10.7967 53.4218 10.7 53.9218 10.7C54.4218 10.7 54.8418 10.7967 55.1818 10.99C55.5218 11.1833 55.7818 11.45 55.9618 11.79C56.1484 12.13 56.2518 12.5233 56.2718 12.97C56.2784 13.0767 56.2818 13.22 56.2818 13.4C56.2818 13.5733 56.2784 13.7167 56.2718 13.83C56.2518 14.27 56.1518 14.6633 55.9718 15.01C55.7918 15.35 55.5318 15.6167 55.1918 15.81C54.8518 16.0033 54.4284 16.1 53.9218 16.1ZM53.9218 15.33C54.3351 15.33 54.6651 15.2 54.9118 14.94C55.1584 14.6733 55.2918 14.2867 55.3118 13.78C55.3184 13.68 55.3218 13.5533 55.3218 13.4C55.3218 13.2467 55.3184 13.12 55.3118 13.02C55.2918 12.5133 55.1584 12.13 54.9118 11.87C54.6651 11.6033 54.3351 11.47 53.9218 11.47C53.5084 11.47 53.1751 11.6033 52.9218 11.87C52.6751 12.13 52.5451 12.5133 52.5318 13.02C52.5251 13.12 52.5218 13.2467 52.5218 13.4C52.5218 13.5533 52.5251 13.68 52.5318 13.78C52.5451 14.2867 52.6751 14.6733 52.9218 14.94C53.1751 15.2 53.5084 15.33 53.9218 15.33ZM57.7639 16C57.6973 16 57.6406 15.98 57.5939 15.94C57.5539 15.8933 57.5339 15.8367 57.5339 15.77V11.04C57.5339 10.9733 57.5539 10.9167 57.5939 10.87C57.6406 10.8233 57.6973 10.8 57.7639 10.8H58.2239C58.2906 10.8 58.3473 10.8233 58.3939 10.87C58.4406 10.9167 58.4639 10.9733 58.4639 11.04V11.48C58.5973 11.2533 58.7806 11.0833 59.0139 10.97C59.2473 10.8567 59.5273 10.8 59.8539 10.8H60.2539C60.3206 10.8 60.3739 10.8233 60.4139 10.87C60.4539 10.91 60.4739 10.9633 60.4739 11.03V11.44C60.4739 11.5067 60.4539 11.56 60.4139 11.6C60.3739 11.64 60.3206 11.66 60.2539 11.66H59.6539C59.2939 11.66 59.0106 11.7667 58.8039 11.98C58.5973 12.1867 58.4939 12.47 58.4939 12.83V15.77C58.4939 15.8367 58.4706 15.8933 58.4239 15.94C58.3773 15.98 58.3206 16 58.2539 16H57.7639ZM63.3628 16C62.9894 16 62.6861 15.93 62.4528 15.79C62.2194 15.6433 62.0494 15.44 61.9428 15.18C61.8361 14.9133 61.7828 14.6 61.7828 14.24V11.6H61.0028C60.9361 11.6 60.8794 11.58 60.8328 11.54C60.7928 11.4933 60.7728 11.4367 60.7728 11.37V11.03C60.7728 10.9633 60.7928 10.91 60.8328 10.87C60.8794 10.8233 60.9361 10.8 61.0028 10.8H61.7828V9.13C61.7828 9.06333 61.8028 9.01 61.8428 8.97C61.8894 8.92333 61.9461 8.9 62.0128 8.9H62.4828C62.5494 8.9 62.6028 8.92333 62.6428 8.97C62.6894 9.01 62.7128 9.06333 62.7128 9.13V10.8H63.9528C64.0194 10.8 64.0728 10.8233 64.1128 10.87C64.1594 10.91 64.1828 10.9633 64.1828 11.03V11.37C64.1828 11.4367 64.1594 11.4933 64.1128 11.54C64.0728 11.58 64.0194 11.6 63.9528 11.6H62.7128V14.17C62.7128 14.4833 62.7661 14.73 62.8728 14.91C62.9794 15.09 63.1694 15.18 63.4428 15.18H64.0528C64.1194 15.18 64.1728 15.2033 64.2128 15.25C64.2594 15.29 64.2828 15.3433 64.2828 15.41V15.77C64.2828 15.8367 64.2594 15.8933 64.2128 15.94C64.1728 15.98 64.1194 16 64.0528 16H63.3628ZM65.989 16C65.9224 16 65.8657 15.98 65.819 15.94C65.779 15.8933 65.759 15.8367 65.759 15.77V11.6H64.909C64.8424 11.6 64.7857 11.58 64.739 11.54C64.699 11.4933 64.679 11.4367 64.679 11.37V11.03C64.679 10.9633 64.699 10.91 64.739 10.87C64.7857 10.8233 64.8424 10.8 64.909 10.8H65.759V10.3C65.759 9.96 65.8157 9.66333 65.929 9.41C66.0424 9.15 66.2224 8.95 66.469 8.81C66.7224 8.67 67.059 8.6 67.479 8.6H68.079C68.1457 8.6 68.199 8.62333 68.239 8.67C68.279 8.71 68.299 8.76333 68.299 8.83V9.17C68.299 9.23667 68.279 9.29333 68.239 9.34C68.199 9.38 68.1457 9.4 68.079 9.4H67.499C67.1857 9.4 66.9724 9.48333 66.859 9.65C66.7457 9.81 66.689 10.0433 66.689 10.35V10.8H67.979C68.0457 10.8 68.099 10.8233 68.139 10.87C68.179 10.91 68.199 10.9633 68.199 11.03V11.37C68.199 11.4367 68.179 11.4933 68.139 11.54C68.099 11.58 68.0457 11.6 67.979 11.6H66.689V15.77C66.689 15.8367 66.6657 15.8933 66.619 15.94C66.579 15.98 66.5257 16 66.459 16H65.989ZM71.119 16.1C70.6124 16.1 70.189 16.0033 69.849 15.81C69.509 15.6167 69.249 15.35 69.069 15.01C68.889 14.6633 68.789 14.27 68.769 13.83C68.7624 13.7167 68.759 13.5733 68.759 13.4C68.759 13.22 68.7624 13.0767 68.769 12.97C68.789 12.5233 68.889 12.13 69.069 11.79C69.2557 11.45 69.519 11.1833 69.859 10.99C70.199 10.7967 70.619 10.7 71.119 10.7C71.619 10.7 72.039 10.7967 72.379 10.99C72.719 11.1833 72.979 11.45 73.159 11.79C73.3457 12.13 73.449 12.5233 73.469 12.97C73.4757 13.0767 73.479 13.22 73.479 13.4C73.479 13.5733 73.4757 13.7167 73.469 13.83C73.449 14.27 73.349 14.6633 73.169 15.01C72.989 15.35 72.729 15.6167 72.389 15.81C72.049 16.0033 71.6257 16.1 71.119 16.1ZM71.119 15.33C71.5324 15.33 71.8624 15.2 72.109 14.94C72.3557 14.6733 72.489 14.2867 72.509 13.78C72.5157 13.68 72.519 13.5533 72.519 13.4C72.519 13.2467 72.5157 13.12 72.509 13.02C72.489 12.5133 72.3557 12.13 72.109 11.87C71.8624 11.6033 71.5324 11.47 71.119 11.47C70.7057 11.47 70.3724 11.6033 70.119 11.87C69.8724 12.13 69.7424 12.5133 69.729 13.02C69.7224 13.12 69.719 13.2467 69.719 13.4C69.719 13.5533 69.7224 13.68 69.729 13.78C69.7424 14.2867 69.8724 14.6733 70.119 14.94C70.3724 15.2 70.7057 15.33 71.119 15.33ZM74.9712 16C74.9045 16 74.8479 15.98 74.8012 15.94C74.7612 15.8933 74.7412 15.8367 74.7412 15.77V9.13C74.7412 9.06333 74.7612 9.01 74.8012 8.97C74.8479 8.92333 74.9045 8.9 74.9712 8.9H75.4412C75.5145 8.9 75.5712 8.92333 75.6112 8.97C75.6512 9.01 75.6712 9.06333 75.6712 9.13V15.77C75.6712 15.8367 75.6512 15.8933 75.6112 15.94C75.5712 15.98 75.5145 16 75.4412 16H74.9712ZM77.4905 16C77.4238 16 77.3672 15.98 77.3205 15.94C77.2805 15.8933 77.2605 15.8367 77.2605 15.77V11.03C77.2605 10.9633 77.2805 10.91 77.3205 10.87C77.3672 10.8233 77.4238 10.8 77.4905 10.8H77.9705C78.0372 10.8 78.0905 10.8233 78.1305 10.87C78.1705 10.91 78.1905 10.9633 78.1905 11.03V15.77C78.1905 15.8367 78.1705 15.8933 78.1305 15.94C78.0905 15.98 78.0372 16 77.9705 16H77.4905ZM77.4105 9.83C77.3438 9.83 77.2872 9.81 77.2405 9.77C77.2005 9.72333 77.1805 9.66667 77.1805 9.6V9.06C77.1805 8.99333 77.2005 8.94 77.2405 8.9C77.2872 8.85333 77.3438 8.83 77.4105 8.83H78.0405C78.1072 8.83 78.1605 8.85333 78.2005 8.9C78.2472 8.94 78.2705 8.99333 78.2705 9.06V9.6C78.2705 9.66667 78.2472 9.72333 78.2005 9.77C78.1605 9.81 78.1072 9.83 78.0405 9.83H77.4105ZM81.8319 16.1C81.3252 16.1 80.9019 16.0033 80.5619 15.81C80.2219 15.6167 79.9619 15.35 79.7819 15.01C79.6019 14.6633 79.5019 14.27 79.4819 13.83C79.4752 13.7167 79.4719 13.5733 79.4719 13.4C79.4719 13.22 79.4752 13.0767 79.4819 12.97C79.5019 12.5233 79.6019 12.13 79.7819 11.79C79.9686 11.45 80.2319 11.1833 80.5719 10.99C80.9119 10.7967 81.3319 10.7 81.8319 10.7C82.3319 10.7 82.7519 10.7967 83.0919 10.99C83.4319 11.1833 83.6919 11.45 83.8719 11.79C84.0586 12.13 84.1619 12.5233 84.1819 12.97C84.1886 13.0767 84.1919 13.22 84.1919 13.4C84.1919 13.5733 84.1886 13.7167 84.1819 13.83C84.1619 14.27 84.0619 14.6633 83.8819 15.01C83.7019 15.35 83.4419 15.6167 83.1019 15.81C82.7619 16.0033 82.3386 16.1 81.8319 16.1ZM81.8319 15.33C82.2452 15.33 82.5752 15.2 82.8219 14.94C83.0686 14.6733 83.2019 14.2867 83.2219 13.78C83.2286 13.68 83.2319 13.5533 83.2319 13.4C83.2319 13.2467 83.2286 13.12 83.2219 13.02C83.2019 12.5133 83.0686 12.13 82.8219 11.87C82.5752 11.6033 82.2452 11.47 81.8319 11.47C81.4186 11.47 81.0852 11.6033 80.8319 11.87C80.5852 12.13 80.4552 12.5133 80.4419 13.02C80.4352 13.12 80.4319 13.2467 80.4319 13.4C80.4319 13.5533 80.4352 13.68 80.4419 13.78C80.4552 14.2867 80.5852 14.6733 80.8319 14.94C81.0852 15.2 81.4186 15.33 81.8319 15.33Z" fill="#D0D0D0"/>
</svg>
