<svg width="13" height="13" viewBox="0 0 13 13" fill="none" xmlns="http://www.w3.org/2000/svg">
<path d="M12.866 10.602H11.5256V9.33991C11.5256 9.27049 11.4653 9.2137 11.3916 9.2137H10.5873C10.5136 9.2137 10.4533 9.27049 10.4533 9.33991V10.602H9.11291C9.03919 10.602 8.97888 10.6588 8.97888 10.7282V11.4855C8.97888 11.5549 9.03919 11.6117 9.11291 11.6117H10.4533V12.8738C10.4533 12.9432 10.5136 13 10.5873 13H11.3916C11.4653 13 11.5256 12.9432 11.5256 12.8738V11.6117H12.866C12.9397 11.6117 13 11.5549 13 11.4855V10.7282C13 10.6588 12.9397 10.602 12.866 10.602ZM4.17866 6.28563C4.16358 6.14837 4.1552 6.00954 4.1552 5.86914C4.1552 5.61829 4.18034 5.37376 4.22725 5.13554C4.23898 5.07875 4.20714 5.02037 4.15185 4.99671C3.92399 4.90047 3.71456 4.76795 3.5336 4.60073C3.32038 4.40606 3.1526 4.17168 3.04096 3.91254C2.92932 3.6534 2.87627 3.37519 2.8852 3.09567C2.90028 2.58925 3.11641 2.10808 3.49339 1.74522C3.90723 1.34608 4.46349 1.12837 5.05493 1.13468C5.5894 1.13942 6.10545 1.33346 6.49583 1.67739C6.62819 1.79413 6.74213 1.9235 6.83763 2.06233C6.87114 2.11123 6.93648 2.13174 6.99345 2.11281C7.28833 2.01657 7.59997 1.94874 7.91998 1.91718C8.01381 1.90772 8.06742 1.81306 8.02553 1.73418C7.48101 0.719767 6.3685 0.0193017 5.08174 0.000370169C3.22532 -0.0264495 1.67719 1.40761 1.67719 3.15562C1.67719 4.14637 2.1614 5.02984 2.92038 5.60883C2.38758 5.84074 1.89667 6.161 1.4711 6.56171C0.552946 7.42467 0.0335513 8.56372 4.18953e-05 9.78007C-0.000405296 9.79691 0.00273135 9.81366 0.00926687 9.82934C0.0158024 9.84501 0.0256046 9.8593 0.0380959 9.87136C0.0505873 9.88342 0.065515 9.89299 0.0819995 9.89953C0.098484 9.90607 0.116192 9.90944 0.134079 9.90943H1.07402C1.14606 9.90943 1.20638 9.85579 1.20805 9.78796C1.23989 8.87293 1.63362 8.01628 2.32559 7.3663C2.81818 6.90248 3.42135 6.58064 4.07981 6.42446C4.14347 6.40711 4.18704 6.34873 4.17866 6.28563ZM11.7266 5.86914C11.7266 4.14321 10.2539 2.7407 8.42765 2.71389C6.57123 2.68707 5.02477 4.12113 5.02477 5.86914C5.02477 6.85988 5.51066 7.74335 6.26797 8.32234C5.72965 8.5573 5.2396 8.87988 4.82036 9.27523C3.90221 10.1382 3.38281 11.2772 3.3493 12.492C3.34886 12.5088 3.35199 12.5256 3.35853 12.5413C3.36506 12.557 3.37487 12.5712 3.38736 12.5833C3.39985 12.5954 3.41478 12.6049 3.43126 12.6115C3.44775 12.618 3.46545 12.6214 3.48334 12.6214H4.4216C4.49365 12.6214 4.55396 12.5677 4.55564 12.4999C4.58747 11.5849 4.98121 10.7282 5.67318 10.0782C6.3953 9.39828 7.35367 9.02439 8.37571 9.02439C10.2254 9.02439 11.7266 7.61241 11.7266 5.86914ZM9.89201 7.29689C9.48654 7.67867 8.94872 7.8885 8.37571 7.8885C7.8027 7.8885 7.26487 7.67867 6.85941 7.29689C6.65708 7.10736 6.49721 6.88152 6.38928 6.63275C6.28136 6.38398 6.22757 6.11734 6.23111 5.84863C6.23613 5.33117 6.45562 4.83106 6.8393 4.46032C7.24142 4.07222 7.77924 3.85609 8.35393 3.84978C8.92191 3.84504 9.47314 4.05329 9.8786 4.42719C10.2941 4.81055 10.522 5.32328 10.522 5.86914C10.5203 6.40868 10.2975 6.9151 9.89201 7.29689Z" fill="white"/>
</svg>
