<svg width="52" height="52" viewBox="0 0 52 52" fill="none" xmlns="http://www.w3.org/2000/svg">
<circle cx="26" cy="26" r="25" fill="#1B1B1B" stroke="#1B1B1B" stroke-width="2"/>
<circle cx="26" cy="26" r="23" fill="#1B1B1B" stroke="#0FD75F" stroke-width="2"/>
<path d="M15.4404 28.5601V30.4033C15.4404 31.5501 15.4404 32.1236 15.6916 32.5619C15.9126 32.9472 16.2652 33.2605 16.6988 33.4568C17.1908 33.6801 17.8361 33.6801 19.1245 33.6801H36.1826M15.4404 28.5601V18.3201M15.4404 28.5601L19.8804 25.273L19.885 25.27C20.6882 24.675 21.0904 24.377 21.5271 24.2562C22.0423 24.113 22.5978 24.1351 23.0966 24.3187C23.5195 24.4753 23.8894 24.804 24.6315 25.4635L24.6384 25.4696C25.3921 26.1393 25.7689 26.4752 26.1987 26.6298C26.7074 26.814 27.2734 26.8307 27.7947 26.6769C28.236 26.5459 28.6393 26.2325 29.446 25.6058L36.1826 20.3681" stroke="white" stroke-width="2" stroke-linecap="round" stroke-linejoin="round"/>
</svg>
