<svg width="40" height="44" viewBox="0 0 40 44" fill="none" xmlns="http://www.w3.org/2000/svg">
<path d="M5.31824 37.76V36.53H6.73824C7.02491 36.53 7.26491 36.4733 7.45824 36.36C7.65824 36.2467 7.80824 36.09 7.90824 35.89C8.01491 35.69 8.06824 35.46 8.06824 35.2C8.06824 34.94 8.01491 34.71 7.90824 34.51C7.80824 34.31 7.65824 34.1567 7.45824 34.05C7.26491 33.9367 7.02491 33.88 6.73824 33.88H5.31824V32.65H6.61824C7.23158 32.65 7.75158 32.75 8.17824 32.95C8.61158 33.15 8.94158 33.4367 9.16824 33.81C9.39491 34.1767 9.50824 34.6133 9.50824 35.12V35.28C9.50824 35.7867 9.39491 36.2267 9.16824 36.6C8.94158 36.9667 8.61158 37.2533 8.17824 37.46C7.75158 37.66 7.23158 37.76 6.61824 37.76H5.31824ZM4.09824 40V32.65H5.51824V40H4.09824ZM10.6093 40V34.57H11.7093V36.87H11.6793C11.6793 36.09 11.846 35.5 12.1793 35.1C12.5127 34.7 13.0027 34.5 13.6493 34.5H13.8493V35.71H13.4693C13.0027 35.71 12.6393 35.8367 12.3793 36.09C12.126 36.3367 11.9993 36.6967 11.9993 37.17V40H10.6093ZM17.3502 40.19C16.8702 40.19 16.4469 40.1133 16.0802 39.96C15.7135 39.8067 15.4035 39.6 15.1502 39.34C14.8969 39.0733 14.7035 38.7733 14.5702 38.44C14.4435 38.1067 14.3802 37.76 14.3802 37.4V37.19C14.3802 36.8167 14.4469 36.4633 14.5802 36.13C14.7202 35.79 14.9169 35.49 15.1702 35.23C15.4302 34.9633 15.7435 34.7567 16.1102 34.61C16.4769 34.4567 16.8902 34.38 17.3502 34.38C17.8102 34.38 18.2235 34.4567 18.5902 34.61C18.9569 34.7567 19.2669 34.9633 19.5202 35.23C19.7802 35.49 19.9769 35.79 20.1102 36.13C20.2435 36.4633 20.3102 36.8167 20.3102 37.19V37.4C20.3102 37.76 20.2435 38.1067 20.1102 38.44C19.9835 38.7733 19.7935 39.0733 19.5402 39.34C19.2869 39.6 18.9769 39.8067 18.6102 39.96C18.2435 40.1133 17.8235 40.19 17.3502 40.19ZM17.3502 39C17.6902 39 17.9769 38.9267 18.2102 38.78C18.4435 38.6267 18.6202 38.4233 18.7402 38.17C18.8602 37.91 18.9202 37.6167 18.9202 37.29C18.9202 36.9567 18.8569 36.6633 18.7302 36.41C18.6102 36.15 18.4302 35.9467 18.1902 35.8C17.9569 35.6467 17.6769 35.57 17.3502 35.57C17.0235 35.57 16.7402 35.6467 16.5002 35.8C16.2669 35.9467 16.0869 36.15 15.9602 36.41C15.8335 36.6633 15.7702 36.9567 15.7702 37.29C15.7702 37.6167 15.8302 37.91 15.9502 38.17C16.0769 38.4233 16.2569 38.6267 16.4902 38.78C16.7235 38.9267 17.0102 39 17.3502 39ZM21.6473 40V34.38C21.6473 33.76 21.8173 33.3033 22.1573 33.01C22.504 32.71 23.014 32.56 23.6873 32.56H24.2473V33.63H23.5873C23.3806 33.63 23.2206 33.6867 23.1073 33.8C23.0006 33.9067 22.9473 34.06 22.9473 34.26V40H21.6473ZM20.9773 35.62V34.6H24.1973V35.62H20.9773ZM25.3573 40V34.57H26.7473V40H25.3573ZM24.6673 35.61V34.57H26.7473V35.61H24.6673ZM25.8573 33.92C25.5906 33.92 25.3906 33.85 25.2573 33.71C25.1306 33.5633 25.0673 33.3833 25.0673 33.17C25.0673 32.9433 25.1306 32.76 25.2573 32.62C25.3906 32.48 25.5906 32.41 25.8573 32.41C26.1306 32.41 26.3306 32.48 26.4573 32.62C26.5906 32.76 26.6573 32.9433 26.6573 33.17C26.6573 33.3833 26.5906 33.5633 26.4573 33.71C26.3306 33.85 26.1306 33.92 25.8573 33.92ZM28.4137 40V32.7H29.8037V40H28.4137ZM27.7337 33.74V32.7H29.8037V33.74H27.7337ZM33.8206 40.19C33.3539 40.19 32.9439 40.11 32.5906 39.95C32.2439 39.79 31.9539 39.5767 31.7206 39.31C31.4939 39.0367 31.3206 38.7333 31.2006 38.4C31.0873 38.0667 31.0306 37.7267 31.0306 37.38V37.19C31.0306 36.83 31.0873 36.4833 31.2006 36.15C31.3206 35.81 31.4939 35.51 31.7206 35.25C31.9539 34.9833 32.2406 34.7733 32.5806 34.62C32.9206 34.46 33.3139 34.38 33.7606 34.38C34.3473 34.38 34.8373 34.51 35.2306 34.77C35.6306 35.0233 35.9306 35.36 36.1306 35.78C36.3306 36.1933 36.4306 36.64 36.4306 37.12V37.62H31.6206V36.77H35.5606L35.1306 37.19C35.1306 36.8433 35.0806 36.5467 34.9806 36.3C34.8806 36.0533 34.7273 35.8633 34.5206 35.73C34.3206 35.5967 34.0673 35.53 33.7606 35.53C33.4539 35.53 33.1939 35.6 32.9806 35.74C32.7673 35.88 32.6039 36.0833 32.4906 36.35C32.3839 36.61 32.3306 36.9233 32.3306 37.29C32.3306 37.63 32.3839 37.9333 32.4906 38.2C32.5973 38.46 32.7606 38.6667 32.9806 38.82C33.2006 38.9667 33.4806 39.04 33.8206 39.04C34.1606 39.04 34.4373 38.9733 34.6506 38.84C34.8639 38.7 35.0006 38.53 35.0606 38.33H36.3406C36.2606 38.7033 36.1073 39.03 35.8806 39.31C35.6539 39.59 35.3639 39.8067 35.0106 39.96C34.6639 40.1133 34.2673 40.19 33.8206 40.19Z" fill="#696969"/>
<path d="M27.5 25.6499C27.5 22.8874 24.1425 20.6499 20 20.6499C15.8575 20.6499 12.5 22.8874 12.5 25.6499M20 16.8999C18.6739 16.8999 17.4021 16.3731 16.4645 15.4354C15.5268 14.4978 15 13.226 15 11.8999C15 10.5738 15.5268 9.30205 16.4645 8.36437C17.4021 7.42669 18.6739 6.8999 20 6.8999C21.3261 6.8999 22.5979 7.42669 23.5355 8.36437C24.4732 9.30205 25 10.5738 25 11.8999C25 13.226 24.4732 14.4978 23.5355 15.4354C22.5979 16.3731 21.3261 16.8999 20 16.8999Z" stroke="black" stroke-width="2" stroke-linecap="round" stroke-linejoin="round"/>
</svg>
