<svg width="8" height="10" viewBox="0 0 8 10" fill="none" xmlns="http://www.w3.org/2000/svg">
<path d="M1.92 9.06C1.768 9.06 1.64 9.008 1.536 8.904C1.432 8.8 1.38 8.672 1.38 8.52V7.44H0.732C0.612 7.44 0.508 7.4 0.42 7.32C0.34 7.232 0.3 7.128 0.3 7.008C0.3 6.888 0.34 6.784 0.42 6.696C0.508 6.608 0.612 6.564 0.732 6.564H1.38V5.796H0.732C0.612 5.796 0.508 5.756 0.42 5.676C0.34 5.588 0.3 5.484 0.3 5.364C0.3 5.244 0.34 5.14 0.42 5.052C0.508 4.964 0.612 4.92 0.732 4.92H1.38V1.176C1.38 1.024 1.432 0.896 1.536 0.792C1.64 0.68 1.768 0.624 1.92 0.624H4.296C5.056 0.624 5.676 0.752 6.156 1.008C6.636 1.256 6.98 1.58 7.188 1.98C7.396 2.372 7.5 2.792 7.5 3.24C7.5 3.704 7.384 4.132 7.152 4.524C6.928 4.908 6.568 5.216 6.072 5.448C5.576 5.68 4.944 5.796 4.176 5.796H2.472V6.564H4.8C4.92 6.564 5.024 6.608 5.112 6.696C5.2 6.784 5.244 6.888 5.244 7.008C5.244 7.136 5.2 7.24 5.112 7.32C5.032 7.4 4.928 7.44 4.8 7.44H2.472V8.52C2.472 8.672 2.416 8.8 2.304 8.904C2.2 9.008 2.072 9.06 1.92 9.06ZM4.068 4.92C4.9 4.92 5.496 4.76 5.856 4.44C6.224 4.12 6.408 3.728 6.408 3.264C6.408 2.808 6.24 2.428 5.904 2.124C5.576 1.812 5.004 1.656 4.188 1.656H2.472V4.92H4.068Z" fill="#ECECEC"/>
</svg>
