<svg width="15" height="15" viewBox="0 0 15 15" fill="none" xmlns="http://www.w3.org/2000/svg">
<path d="M5.11667 6.56111L9.88333 4.10556M5.11667 8.43889L9.88333 10.8944M1 7.5C1 8.07464 1.22827 8.62574 1.6346 9.03207C2.04093 9.43839 2.59203 9.66667 3.16667 9.66667C3.7413 9.66667 4.2924 9.43839 4.69873 9.03207C5.10506 8.62574 5.33333 8.07464 5.33333 7.5C5.33333 6.92536 5.10506 6.37426 4.69873 5.96794C4.2924 5.56161 3.7413 5.33333 3.16667 5.33333C2.59203 5.33333 2.04093 5.56161 1.6346 5.96794C1.22827 6.37426 1 6.92536 1 7.5ZM9.66667 3.16667C9.66667 3.7413 9.89494 4.2924 10.3013 4.69873C10.7076 5.10506 11.2587 5.33333 11.8333 5.33333C12.408 5.33333 12.9591 5.10506 13.3654 4.69873C13.7717 4.2924 14 3.7413 14 3.16667C14 2.59203 13.7717 2.04093 13.3654 1.6346C12.9591 1.22827 12.408 1 11.8333 1C11.2587 1 10.7076 1.22827 10.3013 1.6346C9.89494 2.04093 9.66667 2.59203 9.66667 3.16667ZM9.66667 11.8333C9.66667 12.408 9.89494 12.9591 10.3013 13.3654C10.7076 13.7717 11.2587 14 11.8333 14C12.408 14 12.9591 13.7717 13.3654 13.3654C13.7717 12.9591 14 12.408 14 11.8333C14 11.2587 13.7717 10.7076 13.3654 10.3013C12.9591 9.89494 12.408 9.66667 11.8333 9.66667C11.2587 9.66667 10.7076 9.89494 10.3013 10.3013C9.89494 10.7076 9.66667 11.2587 9.66667 11.8333Z" stroke="white" stroke-width="1.2" stroke-linecap="round" stroke-linejoin="round"/>
</svg>
