<svg width="70" height="60" viewBox="0 0 70 60" fill="none" xmlns="http://www.w3.org/2000/svg">
<path d="M65.8809 30C65.8809 37.9565 62.6272 45.5871 56.8357 51.2132C51.0441 56.8393 43.1891 60 34.9986 60C26.8081 60 18.953 56.8393 13.1614 51.2132C7.36988 45.5871 4.11621 37.9565 4.11621 30L5.14151 30C5.14151 37.6923 8.28715 45.0696 13.8864 50.5089C19.4857 55.9482 27.08 59.004 34.9986 59.004C42.9171 59.004 50.5114 55.9482 56.1107 50.5089C61.71 45.0696 64.8556 37.6923 64.8556 30H65.8809Z" fill="#ECECEC"/>
<path d="M65.3662 30C65.3662 29.5 66.9103 29.5 66.9103 29.5H69.9986" stroke="#ECECEC"/>
<path d="M4.63379 30C4.63379 29.5 3.08967 29.5 3.08967 29.5H0.001436" stroke="#ECECEC"/>
<path d="M64.8533 30C64.8533 37.6913 61.7081 45.0675 56.1096 50.5061C50.5111 55.9446 42.9179 59 35.0004 59C27.0829 59 19.4897 55.9446 13.8912 50.5061C8.29267 45.0675 5.14746 37.6913 5.14746 30L6.13858 30C6.13858 37.4359 9.17937 44.5673 14.592 49.8253C20.0047 55.0833 27.3458 58.0372 35.0004 58.0372C42.655 58.0372 49.9962 55.0833 55.4088 49.8253C60.8214 44.5673 63.8622 37.4359 63.8622 30L64.8533 30Z" fill="#F5F5F5"/>
<path d="M0 28.5002H3.08824C3.08824 28.5002 4.63235 28.5002 5.14706 29.0002C5.66176 29.5002 5.66176 30.0002 5.66176 30.0002V31.0002" stroke="#F5F5F5"/>
<path d="M70 28.5H66.9118C66.9118 28.5 65.3676 28.5 64.8529 29C64.3382 29.5 64.3382 30 64.3382 30V31" stroke="#F5F5F5"/>
</svg>
