<svg width="40" height="44" viewBox="0 0 40 44" fill="none" xmlns="http://www.w3.org/2000/svg">
<path d="M5.61563 40L3.75563 32.7H5.22563L6.73563 39.05L6.34563 38.82H7.34563L6.90563 39.05L8.09563 32.98H9.31563L7.83563 40H5.61563ZM9.97563 40L8.36563 32.98H9.63563L11.0056 39.05L10.5756 38.82H11.5556L11.1756 39.05L12.5056 32.7H13.8956L12.2356 40H9.97563ZM18.0839 40V38.39H17.8539V36.6C17.8539 36.2867 17.7772 36.0533 17.6239 35.9C17.4706 35.7467 17.2339 35.67 16.9139 35.67C16.7472 35.67 16.5472 35.6733 16.3139 35.68C16.0806 35.6867 15.8439 35.6967 15.6039 35.71C15.3706 35.7167 15.1606 35.7267 14.9739 35.74V34.56C15.1272 34.5467 15.3006 34.5333 15.4939 34.52C15.6872 34.5067 15.8839 34.5 16.0839 34.5C16.2906 34.4933 16.4839 34.49 16.6639 34.49C17.2239 34.49 17.6872 34.5633 18.0539 34.71C18.4272 34.8567 18.7072 35.0867 18.8939 35.4C19.0872 35.7133 19.1839 36.1233 19.1839 36.63V40H18.0839ZM16.3339 40.14C15.9406 40.14 15.5939 40.07 15.2939 39.93C15.0006 39.79 14.7706 39.59 14.6039 39.33C14.4439 39.07 14.3639 38.7567 14.3639 38.39C14.3639 37.99 14.4606 37.6633 14.6539 37.41C14.8539 37.1567 15.1306 36.9667 15.4839 36.84C15.8439 36.7133 16.2639 36.65 16.7439 36.65H18.0039V37.48H16.7239C16.4039 37.48 16.1572 37.56 15.9839 37.72C15.8172 37.8733 15.7339 38.0733 15.7339 38.32C15.7339 38.5667 15.8172 38.7667 15.9839 38.92C16.1572 39.0733 16.4039 39.15 16.7239 39.15C16.9172 39.15 17.0939 39.1167 17.2539 39.05C17.4206 38.9767 17.5572 38.8567 17.6639 38.69C17.7772 38.5167 17.8406 38.2833 17.8539 37.99L18.1939 38.38C18.1606 38.76 18.0672 39.08 17.9139 39.34C17.7672 39.6 17.5606 39.8 17.2939 39.94C17.0339 40.0733 16.7139 40.14 16.3339 40.14ZM20.7428 40V32.7H22.1328V40H20.7428ZM20.0628 33.74V32.7H22.1328V33.74H20.0628ZM23.7897 40V32.7H25.1797V40H23.7897ZM23.1097 33.74V32.7H25.1797V33.74H23.1097ZM29.1966 40.19C28.7299 40.19 28.3199 40.11 27.9666 39.95C27.6199 39.79 27.3299 39.5767 27.0966 39.31C26.8699 39.0367 26.6966 38.7333 26.5766 38.4C26.4632 38.0667 26.4066 37.7267 26.4066 37.38V37.19C26.4066 36.83 26.4632 36.4833 26.5766 36.15C26.6966 35.81 26.8699 35.51 27.0966 35.25C27.3299 34.9833 27.6166 34.7733 27.9566 34.62C28.2966 34.46 28.6899 34.38 29.1366 34.38C29.7232 34.38 30.2132 34.51 30.6066 34.77C31.0066 35.0233 31.3066 35.36 31.5066 35.78C31.7066 36.1933 31.8066 36.64 31.8066 37.12V37.62H26.9966V36.77H30.9366L30.5066 37.19C30.5066 36.8433 30.4566 36.5467 30.3566 36.3C30.2566 36.0533 30.1032 35.8633 29.8966 35.73C29.6966 35.5967 29.4432 35.53 29.1366 35.53C28.8299 35.53 28.5699 35.6 28.3566 35.74C28.1432 35.88 27.9799 36.0833 27.8666 36.35C27.7599 36.61 27.7066 36.9233 27.7066 37.29C27.7066 37.63 27.7599 37.9333 27.8666 38.2C27.9732 38.46 28.1366 38.6667 28.3566 38.82C28.5766 38.9667 28.8566 39.04 29.1966 39.04C29.5366 39.04 29.8132 38.9733 30.0266 38.84C30.2399 38.7 30.3766 38.53 30.4366 38.33H31.7166C31.6366 38.7033 31.4832 39.03 31.2566 39.31C31.0299 39.59 30.7399 39.8067 30.3866 39.96C30.0399 40.1133 29.6432 40.19 29.1966 40.19ZM35.3277 40.07C34.8277 40.07 34.4144 40.0067 34.0877 39.88C33.7677 39.7467 33.5277 39.5267 33.3677 39.22C33.2077 38.9067 33.1277 38.4867 33.1277 37.96L33.1377 33.04H34.4377L34.4277 38.05C34.4277 38.3167 34.4977 38.5233 34.6377 38.67C34.7844 38.81 34.9911 38.88 35.2577 38.88H36.1077V40.07H35.3277ZM32.2677 35.59V34.57H36.1077V35.59H32.2677Z" fill="#696969"/>
<path d="M28.75 25H11.25C10.587 25 9.95107 24.7366 9.48223 24.2678C9.01339 23.7989 8.75 23.163 8.75 22.5V11.25C8.75 10.587 9.01339 9.95107 9.48223 9.48223C9.95107 9.01339 10.587 8.75 11.25 8.75H28.75C29.413 8.75 30.0489 9.01339 30.5178 9.48223C30.9866 9.95107 31.25 10.587 31.25 11.25V22.5C31.25 23.163 30.9866 23.7989 30.5178 24.2678C30.0489 24.7366 29.413 25 28.75 25Z" stroke="black" stroke-width="1.875"/>
<path d="M25.625 17.5C25.4592 17.5 25.3003 17.4342 25.1831 17.3169C25.0658 17.1997 25 17.0408 25 16.875C25 16.7092 25.0658 16.5503 25.1831 16.4331C25.3003 16.3158 25.4592 16.25 25.625 16.25C25.7908 16.25 25.9497 16.3158 26.0669 16.4331C26.1842 16.5503 26.25 16.7092 26.25 16.875C26.25 17.0408 26.1842 17.1997 26.0669 17.3169C25.9497 17.4342 25.7908 17.5 25.625 17.5Z" fill="black" stroke="black" stroke-width="1.875" stroke-linecap="round" stroke-linejoin="round"/>
<path d="M27.5 8.74995V7.0037C27.4999 6.62058 27.4117 6.2426 27.2423 5.89897C27.0729 5.55534 26.8268 5.25523 26.523 5.02184C26.2192 4.78844 25.8658 4.628 25.4901 4.5529C25.1144 4.4778 24.7265 4.49004 24.3562 4.5887L10.6063 8.25495C10.0738 8.39684 9.60317 8.71065 9.26749 9.14761C8.9318 9.58456 8.74988 10.1202 8.75 10.6712V11.2499" stroke="black" stroke-width="1.875"/>
</svg>
